# This file uses centimeters as units for non-parametric coordinates.

mtllib Table placeholder 2.mtl
g default
v 110.766124 -0.155721 -56.767529
v 111.100048 -0.155732 1.103634
v 110.497814 105.495639 -56.605755
v 111.624561 105.495639 0.524502
v 157.496924 105.495639 -57.410610
v 157.979368 105.495639 -0.543690
v 157.635270 -0.155728 -57.510403
v 159.153880 -0.155740 -0.894871
vt 0.375000 0.000000
vt 0.625000 0.000000
vt 0.625000 0.250000
vt 0.375000 0.250000
vt 0.625000 0.500000
vt 0.375000 0.500000
vt 0.625000 0.750000
vt 0.375000 0.750000
vt 0.625000 1.000000
vt 0.375000 1.000000
vt 0.875000 0.000000
vt 0.875000 0.250000
vt 0.125000 0.000000
vt 0.125000 0.250000
vn -0.999919 0.001237 0.012700
vn -0.999919 0.001237 0.012700
vn -0.999919 0.001237 0.012700
vn -0.999919 0.001237 0.012700
vn 0.000000 1.000000 0.000000
vn 0.000000 1.000000 0.000000
vn 0.000000 1.000000 0.000000
vn 0.000000 1.000000 0.000000
vn 0.999825 0.006250 -0.017630
vn 0.999825 0.006250 -0.017630
vn 0.999825 0.006250 -0.017630
vn 0.999825 0.006250 -0.017630
vn 0.000000 -1.000000 0.000000
vn 0.000000 -1.000000 0.000000
vn 0.000000 -1.000000 0.000000
vn 0.000000 -1.000000 0.000000
vn 0.032466 0.001178 0.999472
vn 0.032466 0.001178 0.999472
vn 0.032466 0.001178 0.999472
vn 0.032466 0.001178 0.999472
vn -0.016486 0.001206 -0.999863
vn -0.016486 0.001206 -0.999863
vn -0.016486 0.001206 -0.999863
vn -0.016486 0.001206 -0.999863
s off
g Table_placeholder_1:pCube1
usemtl initialShadingGroup
f 1/1/1 2/2/2 4/3/3 3/4/4
f 3/4/5 4/3/6 6/5/7 5/6/8
f 5/6/9 6/5/10 8/7/11 7/8/12
f 7/8/13 8/7/14 2/9/15 1/10/16
f 2/2/17 8/11/18 6/12/19 4/3/20
f 7/13/21 1/1/22 3/4/23 5/14/24
