# This file uses centimeters as units for non-parametric coordinates.

mtllib Table placeholder 4.mtl
g default
v -183.196720 -0.155721 -39.425171
v -182.862797 -0.155732 18.445984
v -183.465031 105.495636 -39.263397
v -182.338284 105.495636 17.866852
v -136.465923 105.495636 -40.068253
v -135.983471 105.495636 16.798660
v -136.327572 -0.155728 -40.168045
v -134.808956 -0.155740 16.447479
vt 0.375000 0.000000
vt 0.625000 0.000000
vt 0.625000 0.250000
vt 0.375000 0.250000
vt 0.625000 0.500000
vt 0.375000 0.500000
vt 0.625000 0.750000
vt 0.375000 0.750000
vt 0.625000 1.000000
vt 0.375000 1.000000
vt 0.875000 0.000000
vt 0.875000 0.250000
vt 0.125000 0.000000
vt 0.125000 0.250000
vn -0.999919 0.001237 0.012700
vn -0.999919 0.001237 0.012700
vn -0.999919 0.001237 0.012700
vn -0.999919 0.001237 0.012700
vn 0.000000 1.000000 0.000000
vn 0.000000 1.000000 0.000000
vn 0.000000 1.000000 0.000000
vn 0.000000 1.000000 0.000000
vn 0.999825 0.006250 -0.017630
vn 0.999825 0.006250 -0.017630
vn 0.999825 0.006250 -0.017630
vn 0.999825 0.006250 -0.017630
vn 0.000000 -1.000000 0.000000
vn 0.000000 -1.000000 0.000000
vn 0.000000 -1.000000 0.000000
vn 0.000000 -1.000000 0.000000
vn 0.032466 0.001178 0.999472
vn 0.032466 0.001178 0.999472
vn 0.032466 0.001178 0.999472
vn 0.032466 0.001178 0.999472
vn -0.016486 0.001206 -0.999863
vn -0.016486 0.001206 -0.999863
vn -0.016486 0.001206 -0.999863
vn -0.016486 0.001206 -0.999863
s off
g Table_placeholder_3:pCube1
usemtl initialShadingGroup
f 1/1/1 2/2/2 4/3/3 3/4/4
f 3/4/5 4/3/6 6/5/7 5/6/8
f 5/6/9 6/5/10 8/7/11 7/8/12
f 7/8/13 8/7/14 2/9/15 1/10/16
f 2/2/17 8/11/18 6/12/19 4/3/20
f 7/13/21 1/1/22 3/4/23 5/14/24
